<svg width="234" height="82" viewBox="0 0 234 82" fill="none"
    xmlns="http://www.w3.org/2000/svg">
    <path d="M124.191 62.1555C124.408 62.1388 124.617 62.1305 124.817 62.1305C125.618 62.1305 126.31 62.3057 126.894 62.656L127.545 63.0564C127.878 63.2733 128.104 63.5819 128.22 63.9823C128.254 64.1325 128.27 64.2826 128.27 64.4328C128.27 64.683 128.22 64.9166 128.12 65.1334C127.987 65.4171 127.878 65.684 127.795 65.9342C126.727 69.2208 125.251 72.0235 123.366 74.3425C122.215 75.7605 120.913 77.0201 119.462 78.1212C118.01 79.2223 116.292 80.2233 114.307 81.1241C114.023 81.2576 113.723 81.3243 113.406 81.3243C113.289 81.3243 113.164 81.316 113.03 81.2993C112.58 81.2326 112.188 81.0491 111.854 80.7488L110.378 79.4225C110.178 79.2556 110.078 79.0554 110.078 78.8219C110.078 78.7552 110.086 78.6884 110.103 78.6217C110.169 78.3047 110.361 78.0878 110.678 77.971C112.797 77.237 114.54 76.4028 115.908 75.4686C117.276 74.5177 118.519 73.4082 119.637 72.1403C120.388 71.3062 121.08 70.2885 121.714 69.0873C122.348 67.8695 122.773 66.8101 122.99 65.9092C123.024 65.7924 122.974 65.734 122.84 65.734H116.834C116.717 65.734 116.617 65.7841 116.534 65.8842C114.966 67.8194 113.247 69.5211 111.379 70.9892C111.029 71.2394 110.636 71.3646 110.203 71.3646C109.769 71.3646 109.369 71.2311 109.002 70.9642L107.9 70.1384C107.617 69.9382 107.475 69.6712 107.475 69.3376C107.475 68.9705 107.634 68.6786 107.951 68.4617C108.818 67.8611 109.61 67.2355 110.328 66.5849C111.062 65.9175 111.704 65.2502 112.255 64.5829C112.805 63.9156 113.247 63.3484 113.581 62.8812C113.915 62.4141 114.282 61.8719 114.682 61.2546C114.966 60.8209 115.249 60.262 115.533 59.578C115.7 59.1943 115.958 58.919 116.309 58.7522C116.526 58.6354 116.751 58.577 116.984 58.577C117.135 58.577 117.285 58.602 117.435 58.6521L119.162 59.2276C119.512 59.3444 119.745 59.578 119.862 59.9283C119.912 60.0618 119.937 60.1869 119.937 60.3037C119.937 60.5206 119.879 60.7208 119.762 60.9043C119.562 61.2379 119.328 61.6217 119.061 62.0554C119.045 62.0888 119.045 62.1305 119.061 62.1805C119.095 62.2139 119.128 62.2306 119.162 62.2306H123.115C123.449 62.2306 123.808 62.2056 124.191 62.1555Z" fill="#FF0000"/>
    <path d="M135.678 61.2296C135.678 60.8626 135.811 60.5373 136.078 60.2536C136.345 59.9533 136.67 59.8032 137.054 59.8032H138.706C139.089 59.8032 139.415 59.9533 139.682 60.2536C139.949 60.5373 140.082 60.8626 140.082 61.2296C140.082 61.2463 140.082 61.263 140.082 61.2797C140.082 61.4632 140.082 61.6467 140.082 61.8302V70.5387C140.082 70.789 140.082 71.0976 140.082 71.4647C140.082 71.4813 140.082 71.498 140.082 71.5147C140.082 71.8984 139.957 72.2237 139.707 72.4907C139.423 72.791 139.089 72.9411 138.706 72.9411H137.029C136.629 72.9411 136.295 72.791 136.028 72.4907C135.778 72.2237 135.653 71.9068 135.653 71.5397C135.653 71.523 135.653 71.498 135.653 71.4647C135.669 71.0809 135.678 70.764 135.678 70.5137V61.8302V61.2296ZM147.489 60.9543C147.489 60.604 147.606 60.2954 147.84 60.0284C148.107 59.7281 148.432 59.578 148.816 59.578H150.467C150.868 59.578 151.201 59.7281 151.468 60.0284C151.735 60.2954 151.869 60.6207 151.869 61.0044C151.869 61.0211 151.86 61.0377 151.844 61.0544C151.844 61.4882 151.844 61.922 151.844 62.3557V67.9362C151.844 70.3719 151.577 72.3322 151.043 73.817C150.526 75.3018 149.742 76.5947 148.691 77.6958C147.489 78.947 145.854 80.0064 143.786 80.8739C143.535 80.974 143.277 81.024 143.01 81.024C142.843 81.024 142.676 81.0074 142.509 80.974C142.076 80.8739 141.7 80.657 141.383 80.3234L140.157 79.0221C140.007 78.8553 139.932 78.6717 139.932 78.4715C139.932 78.3881 139.94 78.2964 139.957 78.1963C140.057 77.8793 140.266 77.6791 140.583 77.5957C142.651 76.9784 144.278 76.0525 145.462 74.818C146.28 73.9504 146.83 73.0078 147.114 71.9902C147.398 70.9558 147.539 69.5127 147.539 67.6609V62.3557L147.489 60.9543Z" fill="#FF0000"/>
    <path d="M166.733 66.8101C166.667 66.6266 166.633 66.4514 166.633 66.2846C166.633 66.0844 166.675 65.8925 166.758 65.709C166.925 65.3587 167.192 65.1168 167.559 64.9833L168.435 64.708C168.618 64.6413 168.794 64.6079 168.96 64.6079C169.177 64.6079 169.394 64.658 169.611 64.7581C169.995 64.9416 170.262 65.2252 170.412 65.6089C170.779 66.5432 171.146 67.5108 171.513 68.5118C171.58 68.6786 171.613 68.8454 171.613 69.0122C171.613 69.2291 171.563 69.4377 171.463 69.6379C171.279 70.0049 170.996 70.2551 170.612 70.3886L169.686 70.7139C169.519 70.764 169.361 70.789 169.211 70.789C168.994 70.789 168.777 70.7389 168.56 70.6388C168.21 70.4553 167.968 70.1717 167.834 69.788C167.484 68.737 167.117 67.7443 166.733 66.8101ZM174.841 66.4097C174.908 66.026 175.1 65.734 175.417 65.5338C175.617 65.4004 175.826 65.3336 176.042 65.3336C176.176 65.3336 176.301 65.3503 176.418 65.3837L177.994 65.8842C178.378 66.0176 178.662 66.2595 178.845 66.6099C178.945 66.8268 178.995 67.052 178.995 67.2856C178.995 67.4357 178.979 67.5858 178.945 67.736C178.879 67.9362 178.795 68.2198 178.695 68.5868C177.911 71.473 176.76 73.892 175.242 75.844C173.29 78.4132 170.846 80.3984 167.909 81.7998C167.642 81.9333 167.367 82 167.084 82C166.933 82 166.792 81.9833 166.658 81.95C166.224 81.8665 165.849 81.658 165.532 81.3243L164.356 80.1232C164.172 79.9396 164.081 79.7395 164.081 79.5226C164.081 79.4392 164.097 79.3557 164.131 79.2723C164.214 78.9553 164.414 78.7385 164.731 78.6217C166.066 78.1212 167.384 77.4455 168.685 76.5947C169.986 75.7439 171.054 74.7846 171.888 73.7169C172.606 72.8327 173.223 71.7399 173.74 70.4386C174.257 69.1374 174.624 67.7944 174.841 66.4097ZM160.802 68.2865C160.719 68.103 160.677 67.9195 160.677 67.736C160.677 67.5692 160.711 67.394 160.777 67.2105C160.928 66.8435 161.186 66.5932 161.553 66.4597L162.504 66.1344C162.688 66.0677 162.871 66.0343 163.055 66.0343C163.272 66.0343 163.48 66.076 163.68 66.1594C164.081 66.3096 164.364 66.5765 164.531 66.9602C164.948 67.9445 165.374 69.0039 165.807 70.1384C165.874 70.3052 165.907 70.4804 165.907 70.6639C165.907 70.8641 165.857 71.0643 165.757 71.2645C165.59 71.6315 165.315 71.8901 164.931 72.0402L163.905 72.4156C163.739 72.4823 163.572 72.5157 163.405 72.5157C163.205 72.5157 162.996 72.4656 162.779 72.3655C162.429 72.1987 162.187 71.9234 162.054 71.5397C161.603 70.3052 161.186 69.2208 160.802 68.2865Z" fill="#FF0000"/>
    <path d="M201.067 61.7301C201.284 61.6967 201.492 61.68 201.693 61.68C202.493 61.68 203.186 61.8636 203.77 62.2306L204.395 62.631C204.746 62.8312 204.971 63.1398 205.071 63.5569C205.104 63.707 205.121 63.8572 205.121 64.0073C205.121 64.2409 205.071 64.4745 204.971 64.708C204.854 64.9749 204.746 65.2419 204.645 65.5088C203.828 67.7777 202.727 69.9382 201.342 71.9902C201.276 72.0903 201.292 72.1737 201.392 72.2404C201.776 72.4907 202.135 72.7242 202.468 72.9411C202.802 73.158 202.994 73.4666 203.044 73.867C203.061 73.9504 203.069 74.0338 203.069 74.1173C203.069 74.4176 202.969 74.6928 202.769 74.9431L201.743 76.2694C201.509 76.5864 201.192 76.7699 200.792 76.8199C200.725 76.8199 200.658 76.8199 200.592 76.8199C200.275 76.8199 199.983 76.7198 199.716 76.5196C199.399 76.2694 199.032 76.0024 198.615 75.7188C198.514 75.6354 198.423 75.6438 198.339 75.7439C196.154 78.0461 193.618 79.8479 190.732 81.1492C190.432 81.2826 190.131 81.3494 189.831 81.3494C189.697 81.3494 189.564 81.341 189.431 81.3243C188.997 81.2409 188.605 81.0491 188.254 80.7488L186.878 79.5726C186.678 79.3891 186.578 79.1806 186.578 78.947C186.578 78.897 186.586 78.8386 186.603 78.7718C186.67 78.4549 186.853 78.238 187.153 78.1212C190.19 77.0034 192.759 75.4102 194.861 73.3415C194.944 73.2581 194.936 73.183 194.836 73.1163C193.835 72.4656 192.876 71.8567 191.958 71.2895C191.624 71.106 191.433 70.8224 191.382 70.4386C191.366 70.3719 191.357 70.3052 191.357 70.2385C191.357 69.9382 191.458 69.6712 191.658 69.4377L192.333 68.6869C192.617 68.3533 192.976 68.1531 193.409 68.0863C193.526 68.0697 193.643 68.0613 193.76 68.0613C194.06 68.0613 194.344 68.1364 194.611 68.2865C195.678 68.8538 196.646 69.3876 197.513 69.8881C197.63 69.9548 197.722 69.9382 197.789 69.8381C198.873 68.1864 199.591 66.735 199.941 65.4838C199.958 65.4337 199.949 65.392 199.916 65.3587C199.882 65.3086 199.841 65.2836 199.791 65.2836H193.585C193.451 65.2836 193.351 65.3336 193.284 65.4337C191.616 67.5692 189.806 69.4126 187.854 70.9642C187.504 71.2311 187.12 71.3646 186.703 71.3646C186.686 71.3646 186.678 71.3646 186.678 71.3646C186.227 71.3646 185.827 71.2311 185.477 70.9642L184.476 70.1634C184.209 69.9632 184.075 69.6963 184.075 69.3626C184.075 68.9789 184.225 68.6786 184.526 68.4617C185.41 67.8444 186.219 67.1938 186.953 66.5098C187.704 65.8258 188.363 65.1334 188.93 64.4328C189.514 63.7321 189.973 63.1398 190.306 62.656C190.657 62.1722 191.032 61.6133 191.433 60.9794C191.699 60.5456 191.983 59.9951 192.283 59.3277C192.45 58.944 192.709 58.6604 193.059 58.4769C193.293 58.3601 193.518 58.3017 193.735 58.3017C193.885 58.3017 194.035 58.3268 194.185 58.3768L195.862 58.8773C196.212 58.9941 196.446 59.2276 196.563 59.578C196.613 59.7114 196.638 59.8449 196.638 59.9784C196.638 60.1786 196.579 60.3704 196.462 60.5539C196.262 60.8709 196.045 61.2296 195.812 61.63C195.795 61.6634 195.795 61.6967 195.812 61.7301C195.845 61.7635 195.879 61.7801 195.912 61.7801H199.991C200.325 61.7801 200.683 61.7635 201.067 61.7301Z" fill="#FF0000"/>
    <path d="M211.527 72.2404C211.511 72.2404 211.486 72.2404 211.452 72.2404C211.085 72.2404 210.768 72.107 210.501 71.84C210.201 71.5731 210.051 71.2394 210.051 70.839V68.8871C210.051 68.5034 210.201 68.1698 210.501 67.8861C210.768 67.6359 211.085 67.5108 211.452 67.5108C211.469 67.5108 211.494 67.5108 211.527 67.5108C212.745 67.5775 213.729 67.6109 214.48 67.6109H228.094C228.561 67.6109 229.12 67.5858 229.77 67.5358C229.804 67.5358 229.837 67.5358 229.87 67.5358C230.221 67.5358 230.529 67.6609 230.796 67.9112C231.096 68.1781 231.247 68.5034 231.247 68.8871V70.839C231.247 71.2394 231.096 71.5814 230.796 71.8651C230.529 72.1153 230.221 72.2404 229.87 72.2404C229.837 72.2404 229.804 72.2404 229.77 72.2404C229.069 72.1904 228.511 72.1653 228.094 72.1653H214.48C213.613 72.1653 212.628 72.1904 211.527 72.2404Z" fill="#FF0000"/>
    <rect width="5.69448" height="5.69448" fill="black"/>
    <rect x="39.8614" width="5.69448" height="5.69448" fill="black"/>
    <rect x="5.69449" width="5.69448" height="5.69448" fill="black"/>
    <rect x="45.5559" width="5.69448" height="5.69448" fill="black"/>
    <rect x="11.389" width="5.69448" height="5.69448" fill="black"/>
    <rect x="51.2503" width="5.69448" height="5.69448" fill="black"/>
    <rect x="210.696" width="5.69448" height="5.69448" fill="#FF0000"/>
    <rect x="17.0834" width="5.69448" height="5.69448" fill="black"/>
    <rect x="56.9448" width="5.69448" height="5.69448" fill="black"/>
    <rect x="216.39" width="5.69448" height="5.69448" fill="#FF0000"/>
    <rect x="22.7779" width="5.69448" height="5.69448" fill="black"/>
    <rect x="62.6393" width="5.69448" height="5.69448" fill="black"/>
    <rect x="222.085" width="5.69448" height="5.69448" fill="#FF0000"/>
    <rect x="28.4724" width="5.69448" height="5.69448" fill="black"/>
    <rect x="68.3338" width="5.69448" height="5.69448" fill="black"/>
    <rect x="227.779" width="5.69448" height="5.69448" fill="#FF0000"/>
    <rect x="34.1669" width="5.69448" height="5.69448" fill="black"/>
    <rect x="74.0283" width="5.69448" height="5.69448" fill="black"/>
    <rect x="79.7228" width="5.69448" height="5.69448" fill="black"/>
    <rect x="5.69449" y="5.69448" width="5.69448" height="5.69448" transform="rotate(90 5.69449 5.69448)" fill="black"/>
    <rect x="45.5559" y="5.69448" width="5.69448" height="5.69448" transform="rotate(90 45.5559 5.69448)" fill="black"/>
    <rect x="5.69449" y="11.389" width="5.69448" height="5.69448" transform="rotate(90 5.69449 11.389)" fill="black"/>
    <rect x="45.5559" y="11.389" width="5.69448" height="5.69448" transform="rotate(90 45.5559 11.389)" fill="black"/>
    <rect x="5.69449" y="17.0835" width="5.69448" height="5.69448" transform="rotate(90 5.69449 17.0835)" fill="black"/>
    <rect x="45.5559" y="17.0835" width="5.69448" height="5.69448" transform="rotate(90 45.5559 17.0835)" fill="black"/>
    <rect x="5.69449" y="22.7779" width="5.69448" height="5.69448" transform="rotate(90 5.69449 22.7779)" fill="black"/>
    <rect x="45.5559" y="22.7779" width="5.69448" height="5.69448" transform="rotate(90 45.5559 22.7779)" fill="black"/>
    <rect x="5.69449" y="28.4724" width="5.69448" height="5.69448" transform="rotate(90 5.69449 28.4724)" fill="black"/>
    <rect x="45.5559" y="28.4724" width="5.69448" height="5.69448" transform="rotate(90 45.5559 28.4724)" fill="black"/>
    <rect x="5.69449" y="34.1669" width="5.69448" height="5.69448" transform="rotate(90 5.69449 34.1669)" fill="black"/>
    <rect x="45.5559" y="34.1669" width="5.69448" height="5.69448" transform="rotate(90 45.5559 34.1669)" fill="black"/>
    <rect x="5.69449" y="39.8614" width="5.69448" height="5.69448" transform="rotate(90 5.69449 39.8614)" fill="black"/>
    <rect x="45.5559" y="39.8614" width="5.69448" height="5.69448" transform="rotate(90 45.5559 39.8614)" fill="black"/>
    <rect x="85.4172" y="45.5559" width="5.69448" height="5.69448" transform="rotate(-180 85.4172 45.5559)" fill="black"/>
    <rect x="39.8614" y="45.5559" width="5.69448" height="5.69448" transform="rotate(-180 39.8614 45.5559)" fill="black"/>
    <rect x="79.7228" y="45.5559" width="5.69448" height="5.69448" transform="rotate(-180 79.7228 45.5559)" fill="black"/>
    <rect x="34.1669" y="45.5559" width="5.69448" height="5.69448" transform="rotate(-180 34.1669 45.5559)" fill="black"/>
    <rect x="74.0283" y="45.5559" width="5.69448" height="5.69448" transform="rotate(-180 74.0283 45.5559)" fill="black"/>
    <rect x="28.4724" y="45.5559" width="5.69448" height="5.69448" transform="rotate(-180 28.4724 45.5559)" fill="black"/>
    <rect x="68.3338" y="45.5559" width="5.69448" height="5.69448" transform="rotate(-180 68.3338 45.5559)" fill="black"/>
    <rect x="22.7779" y="45.5559" width="5.69448" height="5.69448" transform="rotate(-180 22.7779 45.5559)" fill="black"/>
    <rect x="62.6393" y="45.5559" width="5.69448" height="5.69448" transform="rotate(-180 62.6393 45.5559)" fill="black"/>
    <rect x="17.0834" y="45.5559" width="5.69448" height="5.69448" transform="rotate(-180 17.0834 45.5559)" fill="black"/>
    <rect x="56.9448" y="45.5559" width="5.69448" height="5.69448" transform="rotate(-180 56.9448 45.5559)" fill="black"/>
    <rect x="56.9448" y="39.8614" width="5.69448" height="5.69448" transform="rotate(-180 56.9448 39.8614)" fill="black"/>
    <rect x="56.9448" y="28.4724" width="5.69448" height="5.69448" transform="rotate(-180 56.9448 28.4724)" fill="black"/>
    <rect x="56.9448" y="34.1669" width="5.69448" height="5.69448" transform="rotate(-180 56.9448 34.1669)" fill="black"/>
    <rect x="74.0283" y="39.8614" width="5.69448" height="5.69448" transform="rotate(-180 74.0283 39.8614)" fill="black"/>
    <rect x="108.195" y="39.8614" width="5.69448" height="5.69448" transform="rotate(-180 108.195 39.8614)" fill="black"/>
    <rect x="148.057" y="39.8614" width="5.69448" height="5.69448" transform="rotate(-180 148.057 39.8614)" fill="black"/>
    <rect x="187.918" y="39.8614" width="5.69448" height="5.69448" transform="rotate(-180 187.918 39.8614)" fill="black"/>
    <rect x="153.751" y="34.1669" width="5.69448" height="5.69448" transform="rotate(-180 153.751 34.1669)" fill="black"/>
    <rect x="193.612" y="34.1669" width="5.69448" height="5.69448" transform="rotate(-180 193.612 34.1669)" fill="black"/>
    <rect x="222.085" y="39.8614" width="5.69448" height="5.69448" transform="rotate(-180 222.085 39.8614)" fill="black"/>
    <rect x="227.779" y="39.8614" width="5.69448" height="5.69448" transform="rotate(-180 227.779 39.8614)" fill="black"/>
    <rect x="233.474" y="39.8614" width="5.69448" height="5.69448" transform="rotate(-180 233.474 39.8614)" fill="black"/>
    <rect x="233.474" y="34.1669" width="5.69448" height="5.69448" transform="rotate(-180 233.474 34.1669)" fill="black"/>
    <rect x="233.474" y="28.4724" width="5.69448" height="5.69448" transform="rotate(-180 233.474 28.4724)" fill="black"/>
    <rect x="233.474" y="22.7779" width="5.69448" height="5.69448" transform="rotate(-180 233.474 22.7779)" fill="black"/>
    <rect x="216.39" y="39.8614" width="5.69448" height="5.69448" transform="rotate(-180 216.39 39.8614)" fill="black"/>
    <rect x="216.39" y="34.1669" width="5.69448" height="5.69448" transform="rotate(-180 216.39 34.1669)" fill="black"/>
    <rect x="216.39" y="28.4724" width="5.69448" height="5.69448" transform="rotate(-180 216.39 28.4724)" fill="black"/>
    <rect x="222.085" y="28.4724" width="5.69448" height="5.69448" transform="rotate(-180 222.085 28.4724)" fill="black"/>
    <rect x="227.779" y="28.4724" width="5.69448" height="5.69448" transform="rotate(-180 227.779 28.4724)" fill="black"/>
    <rect x="74.0283" y="28.4724" width="5.69448" height="5.69448" transform="rotate(-180 74.0283 28.4724)" fill="black"/>
    <rect x="142.362" y="28.4724" width="5.69448" height="5.69448" transform="rotate(-180 142.362 28.4724)" fill="black"/>
    <rect x="182.223" y="28.4724" width="5.69448" height="5.69448" transform="rotate(-180 182.223 28.4724)" fill="black"/>
    <rect x="108.195" y="28.4724" width="5.69448" height="5.69448" transform="rotate(-180 108.195 28.4724)" fill="black"/>
    <rect x="142.362" y="22.7779" width="5.69448" height="5.69448" transform="rotate(-180 142.362 22.7779)" fill="black"/>
    <rect x="182.223" y="22.7779" width="5.69448" height="5.69448" transform="rotate(-180 182.223 22.7779)" fill="black"/>
    <rect x="142.362" y="17.0835" width="5.69448" height="5.69448" transform="rotate(-180 142.362 17.0835)" fill="black"/>
    <rect x="182.223" y="17.0835" width="5.69448" height="5.69448" transform="rotate(-180 182.223 17.0835)" fill="black"/>
    <rect x="142.362" y="11.389" width="5.69448" height="5.69448" transform="rotate(-180 142.362 11.389)" fill="black"/>
    <rect x="182.223" y="11.389" width="5.69448" height="5.69448" transform="rotate(-180 182.223 11.389)" fill="black"/>
    <rect x="136.668" y="22.7779" width="5.69448" height="5.69448" transform="rotate(-180 136.668 22.7779)" fill="black"/>
    <rect x="176.529" y="22.7779" width="5.69448" height="5.69448" transform="rotate(-180 176.529 22.7779)" fill="black"/>
    <rect x="148.057" y="22.7779" width="5.69448" height="5.69448" transform="rotate(-180 148.057 22.7779)" fill="black"/>
    <rect x="187.918" y="22.7779" width="5.69448" height="5.69448" transform="rotate(-180 187.918 22.7779)" fill="black"/>
    <rect x="108.195" y="17.0835" width="5.69448" height="5.69448" transform="rotate(-180 108.195 17.0835)" fill="black"/>
    <rect x="142.362" y="34.1669" width="5.69448" height="5.69448" transform="rotate(-180 142.362 34.1669)" fill="black"/>
    <rect x="182.223" y="34.1669" width="5.69448" height="5.69448" transform="rotate(-180 182.223 34.1669)" fill="black"/>
    <rect x="222.085" y="17.0835" width="5.69448" height="5.69448" transform="rotate(-180 222.085 17.0835)" fill="black"/>
    <rect x="216.39" y="17.0835" width="5.69448" height="5.69448" transform="rotate(-180 216.39 17.0835)" fill="black"/>
    <rect x="227.779" y="17.0835" width="5.69448" height="5.69448" transform="rotate(-180 227.779 17.0835)" fill="black"/>
    <rect x="74.0283" y="34.1669" width="5.69448" height="5.69448" transform="rotate(-180 74.0283 34.1669)" fill="black"/>
    <rect x="108.195" y="34.1669" width="5.69448" height="5.69448" transform="rotate(-180 108.195 34.1669)" fill="black"/>
    <rect x="79.7228" y="22.7779" width="5.69448" height="5.69448" transform="rotate(-180 79.7228 22.7779)" fill="black"/>
    <rect x="74.0283" y="17.0835" width="5.69448" height="5.69448" transform="rotate(-180 74.0283 17.0835)" fill="black"/>
    <rect x="68.3338" y="17.0835" width="5.69448" height="5.69448" transform="rotate(-180 68.3338 17.0835)" fill="black"/>
    <rect x="62.6393" y="17.0835" width="5.69448" height="5.69448" transform="rotate(-180 62.6393 17.0835)" fill="black"/>
    <rect x="56.9448" y="17.0835" width="5.69448" height="5.69448" transform="rotate(-180 56.9448 17.0835)" fill="black"/>
    <rect x="68.3338" y="39.8614" width="5.69448" height="5.69448" transform="rotate(-180 68.3338 39.8614)" fill="black"/>
    <rect x="68.3338" y="28.4724" width="5.69448" height="5.69448" transform="rotate(-180 68.3338 28.4724)" fill="black"/>
    <rect x="68.3338" y="34.1669" width="5.69448" height="5.69448" transform="rotate(-180 68.3338 34.1669)" fill="black"/>
    <rect x="62.6393" y="39.8614" width="5.69448" height="5.69448" transform="rotate(-180 62.6393 39.8614)" fill="black"/>
    <rect x="62.6393" y="28.4724" width="5.69448" height="5.69448" transform="rotate(-180 62.6393 28.4724)" fill="black"/>
    <rect x="62.6393" y="34.1669" width="5.69448" height="5.69448" transform="rotate(-180 62.6393 34.1669)" fill="black"/>
    <rect x="11.389" y="45.5559" width="5.69448" height="5.69448" transform="rotate(-180 11.389 45.5559)" fill="black"/>
    <rect x="51.2503" y="45.5559" width="5.69448" height="5.69448" transform="rotate(-180 51.2503 45.5559)" fill="black"/>
    <rect x="79.7228" y="39.8614" width="5.69448" height="5.69448" transform="rotate(-90 79.7228 39.8614)" fill="black"/>
    <rect x="79.7228" y="34.1669" width="5.69448" height="5.69448" transform="rotate(-90 79.7228 34.1669)" fill="black"/>
    <rect x="34.1669" y="34.1669" width="5.69448" height="5.69448" transform="rotate(-90 34.1669 34.1669)" fill="black"/>
    <rect x="28.4724" y="39.8614" width="5.69448" height="5.69448" transform="rotate(-90 28.4724 39.8614)" fill="black"/>
    <rect x="28.4724" y="28.4724" width="5.69448" height="5.69448" transform="rotate(-90 28.4724 28.4724)" fill="black"/>
    <rect x="22.7779" y="28.4724" width="5.69448" height="5.69448" transform="rotate(-90 22.7779 28.4724)" fill="black"/>
    <rect x="22.7779" y="34.1669" width="5.69448" height="5.69448" transform="rotate(-90 22.7779 34.1669)" fill="black"/>
    <rect x="17.0834" y="34.1669" width="5.69448" height="5.69448" transform="rotate(-90 17.0834 34.1669)" fill="black"/>
    <rect x="17.0834" y="28.4724" width="5.69448" height="5.69448" transform="rotate(-90 17.0834 28.4724)" fill="black"/>
    <rect x="17.0834" y="22.7779" width="5.69448" height="5.69448" transform="rotate(-90 17.0834 22.7779)" fill="black"/>
    <rect x="22.7779" y="22.7779" width="5.69448" height="5.69448" transform="rotate(-90 22.7779 22.7779)" fill="black"/>
    <rect x="28.4724" y="22.7779" width="5.69448" height="5.69448" transform="rotate(-90 28.4724 22.7779)" fill="black"/>
    <rect x="28.4724" y="17.0835" width="5.69448" height="5.69448" transform="rotate(-90 28.4724 17.0835)" fill="black"/>
    <rect x="22.7779" y="17.0835" width="5.69448" height="5.69448" transform="rotate(-90 22.7779 17.0835)" fill="black"/>
    <rect x="17.0834" y="17.0835" width="5.69448" height="5.69448" transform="rotate(-90 17.0834 17.0835)" fill="black"/>
    <rect x="11.389" y="17.0835" width="5.69448" height="5.69448" transform="rotate(-90 11.389 17.0835)" fill="black"/>
    <rect x="11.389" y="22.7779" width="5.69448" height="5.69448" transform="rotate(-90 11.389 22.7779)" fill="black"/>
    <rect x="11.389" y="28.4724" width="5.69448" height="5.69448" transform="rotate(-90 11.389 28.4724)" fill="black"/>
    <rect x="11.389" y="34.1669" width="5.69448" height="5.69448" transform="rotate(-90 11.389 34.1669)" fill="black"/>
    <rect x="79.7228" y="28.4724" width="5.69448" height="5.69448" transform="rotate(-90 79.7228 28.4724)" fill="black"/>
    <rect x="79.7228" y="22.7779" width="5.69448" height="5.69448" transform="rotate(-90 79.7228 22.7779)" fill="black"/>
    <rect x="79.7228" y="17.0835" width="5.69448" height="5.69448" transform="rotate(-90 79.7228 17.0835)" fill="black"/>
    <rect x="79.7228" y="11.389" width="5.69448" height="5.69448" transform="rotate(-90 79.7228 11.389)" fill="black"/>
</svg>
